<svg id="svg" style="background-color: rgb(82, 174, 255);" class="path" title="background" version="1.1" xmlns="http://www.w3.org/2000/svg"><path fill="#4d9de5" stroke="#4d9de5" d="M -140 943 L -140 0 C -125.26315789473685 0, -98.73684210526315 37, -84 37 C -67.42105263157895 37, -37.578947368421055 -41, -21 -41 C 3.2105263157894726 -41, 46.78947368421053 -24, 71 -24 C 90.47368421052632 -24, 125.52631578947368 44, 145 44 C 157.89473684210526 44, 181.10526315789474 46, 194 46 C 207.94736842105263 46, 233.05263157894737 24, 247 24 C 266.7368421052632 24, 302.2631578947368 30, 322 30 C 346.4736842105263 30, 390.5263157894737 35, 415 35 C 430.5263157894737 35, 458.4736842105263 -25, 474 -25 C 494.5263157894737 -25, 531.4736842105264 -31, 552 -31 C 567.2631578947369 -31, 594.7368421052631 40, 610 40 C 623.421052631579 40, 647.578947368421 28, 661 28 C 676.5263157894736 28, 704.4736842105264 29, 720 29 C 738.6842105263158 29, 772.3157894736842 32, 791 32 C 805.4736842105264 32, 831.5263157894736 40, 846 40 C 861 40, 888 -31, 903 -31 C 918.5263157894736 -31, 946.4736842105264 43, 962 43 C 983.3157894736842 43, 1021.6842105263158 -31, 1043 -31 C 1062.4736842105262 -31, 1097.5263157894738 -31, 1117 -31 C 1139.3684210526317 -31, 1179.6315789473683 40, 1202 40 C 1219.1052631578948 40, 1249.8947368421052 -30, 1267 -30 C 1282 -30, 1309 36, 1324 36 C 1344.7894736842106 36, 1382.2105263157894 28, 1403 28 C 1427.7368421052631 28, 1472.2631578947369 44, 1497 44 C 1512.2631578947369 44, 1539.7368421052631 36, 1555 36 C 1570 36, 1597 -28, 1612 -28 C 1630.421052631579 -28, 1663.578947368421 -24, 1682 -24 C 1694.3684210526317 -24, 1716.6315789473683 -42, 1729 -42 C 1750.578947368421 -42, 1789.421052631579 38, 1811 38 C 1824.9473684210527 38, 1850.0526315789473 -32, 1864 -32 C 1878.2105263157894 -32, 1903.7894736842106 -46, 1918 -46 C 1941.9473684210527 -46, 1985.0526315789473 37, 2009 37 L 2060 0 L 2060 943 Z"></path><path fill="#478ccc" stroke="#478ccc" d="M -140 943 L -126 80 C -113.36842105263158 80, -90.63157894736842 109, -78 109 C -60.368421052631575 109, -28.63157894736842 34, -11 34 C 6.368421052631579 34, 37.631578947368425 104, 55 104 C 71.05263157894737 104, 99.94736842105263 118, 116 118 C 140.4736842105263 118, 184.5263157894737 53, 209 53 C 233.73684210526315 53, 278.2631578947368 111, 303 111 C 318.5263157894737 111, 346.4736842105263 123, 362 123 C 386.7368421052632 123, 431.2631578947368 54, 456 54 C 476 54, 512 45, 532 45 C 551.2105263157895 45, 585.7894736842105 125, 605 125 C 629.4736842105264 125, 673.5263157894736 49, 698 49 C 711.9473684210526 49, 737.0526315789474 111, 751 111 C 767.0526315789474 111, 795.9473684210526 52, 812 52 C 830.1578947368421 52, 862.8421052631579 123, 881 123 C 894.9473684210526 123, 920.0526315789474 34, 934 34 C 949 34, 976 122, 991 122 C 1011.5263157894736 122, 1048.4736842105262 46, 1069 46 C 1086.8947368421052 46, 1119.1052631578948 35, 1137 35 C 1152 35, 1179 107, 1194 107 C 1209.5263157894738 107, 1237.4736842105262 109, 1253 109 C 1271.421052631579 109, 1304.578947368421 39, 1323 39 C 1341.6842105263158 39, 1375.3157894736842 111, 1394 111 C 1413.7368421052631 111, 1449.2631578947369 126, 1469 126 C 1491.8947368421052 126, 1533.1052631578948 43, 1556 43 C 1571.7894736842106 43, 1600.2105263157894 46, 1616 46 C 1638.3684210526317 46, 1678.6315789473683 53, 1701 53 C 1722.3157894736842 53, 1760.6842105263158 111, 1782 111 C 1805.6842105263158 111, 1848.3157894736842 55, 1872 55 C 1892 55, 1928 113, 1948 113 L 2060 80 L 2060 943 Z"></path><path fill="#427cb4" stroke="#427cb4" d="M -140 943 L -112 160 C -94.89473684210526 160, -64.10526315789474 115, -47 115 C -26.47368421052632 115, 10.473684210526319 120, 31 120 C 48.10526315789474 120, 78.89473684210526 115, 96 115 C 112.3157894736842 115, 141.68421052631578 194, 158 194 C 175.3684210526316 194, 206.6315789473684 185, 224 185 C 248.21052631578948 185, 291.7894736842105 187, 316 187 C 328.89473684210526 187, 352.10526315789474 116, 365 116 C 381.05263157894734 116, 409.94736842105266 123, 426 123 C 446.5263157894737 123, 483.4736842105263 198, 504 198 C 517.1578947368421 198, 540.8421052631579 188, 554 188 C 570.8421052631579 188, 601.1578947368421 127, 618 127 C 638.2631578947369 127, 674.7368421052631 203, 695 203 C 707.6315789473684 203, 730.3684210526316 126, 743 126 C 765.1052631578947 126, 804.8947368421053 123, 827 123 C 848.3157894736842 123, 886.6842105263158 187, 908 187 C 922.4736842105264 187, 948.5263157894736 120, 963 120 C 985.3684210526316 120, 1025.6315789473683 122, 1048 122 C 1065.8947368421052 122, 1098.1052631578948 135, 1116 135 C 1129.6842105263158 135, 1154.3157894736842 128, 1168 128 C 1184.842105263158 128, 1215.157894736842 187, 1232 187 C 1249.6315789473683 187, 1281.3684210526317 183, 1299 183 C 1314.5263157894738 183, 1342.4736842105262 125, 1358 125 C 1382.7368421052631 125, 1427.2631578947369 116, 1452 116 C 1465.157894736842 116, 1488.842105263158 201, 1502 201 C 1520.6842105263158 201, 1554.3157894736842 128, 1573 128 C 1586.6842105263158 128, 1611.3157894736842 126, 1625 126 C 1647.6315789473683 126, 1688.3684210526317 123, 1711 123 C 1734.6842105263158 123, 1777.3157894736842 137, 1801 137 C 1821.5263157894738 137, 1858.4736842105262 188, 1879 188 C 1891.8947368421052 188, 1915.1052631578948 188, 1928 188 L 2060 160 L 2060 943 Z"></path><path fill="#3c6c9c" stroke="#3c6c9c" d="M -140 943 L -98 240 C -74.31578947368422 240, -31.684210526315788 200, -8 200 C 11.210526315789473 200, 45.78947368421053 273, 65 273 C 88.94736842105263 273, 132.05263157894737 286, 156 286 C 173.6315789473684 286, 205.3684210526316 270, 223 270 C 244.05263157894737 270, 281.94736842105266 267, 303 267 C 320.89473684210526 267, 353.10526315789474 271, 371 271 C 388.36842105263156 271, 419.63157894736844 267, 437 267 C 459.89473684210526 267, 501.10526315789474 208, 524 208 C 544 208, 580 212, 600 212 C 615 212, 642 196, 657 196 C 680.1578947368421 196, 721.8421052631579 209, 745 209 C 768.1578947368421 209, 809.8421052631579 270, 833 270 C 847.4736842105264 270, 873.5263157894736 200, 888 200 C 911.6842105263158 200, 954.3157894736842 214, 978 214 C 994.578947368421 214, 1024.421052631579 269, 1041 269 C 1053.6315789473683 269, 1076.3684210526317 264, 1089 264 C 1105.3157894736842 264, 1134.6842105263158 284, 1151 284 C 1166.7894736842106 284, 1195.2105263157894 198, 1211 198 C 1228.8947368421052 198, 1261.1052631578948 212, 1279 212 C 1300.3157894736842 212, 1338.6842105263158 263, 1360 263 C 1372.6315789473683 263, 1395.3684210526317 269, 1408 269 C 1431.6842105263158 269, 1474.3157894736842 270, 1498 270 C 1513 270, 1540 202, 1555 202 C 1577.3684210526317 202, 1617.6315789473683 273, 1640 273 C 1657.6315789473683 273, 1689.3684210526317 215, 1707 215 C 1729.1052631578948 215, 1768.8947368421052 273, 1791 273 C 1815.4736842105262 273, 1859.5263157894738 208, 1884 208 C 1907.157894736842 208, 1948.842105263158 274, 1972 274 L 2060 240 L 2060 943 Z"></path><path fill="#365d84" stroke="#365d84" d="M -140 943 L -84 321 C -60.05263157894737 321, -16.94736842105263 352, 7 352 C 29.105263157894736 352, 68.89473684210526 353, 91 353 C 103.89473684210526 353, 127.10526315789474 275, 140 275 C 153.42105263157896 275, 177.57894736842104 289, 191 289 C 210.73684210526315 289, 246.26315789473685 275, 266 275 C 287.05263157894734 275, 324.94736842105266 284, 346 284 C 359.1578947368421 284, 382.8421052631579 294, 396 294 C 410.4736842105263 294, 436.5263157894737 276, 451 276 C 467.8421052631579 276, 498.1578947368421 298, 515 298 C 533.6842105263158 298, 567.3157894736842 352, 586 352 C 600.7368421052631 352, 627.2631578947369 358, 642 358 C 654.8947368421053 358, 678.1052631578947 352, 691 352 C 705.7368421052631 352, 732.2631578947369 288, 747 288 C 769.6315789473684 288, 810.3684210526316 345, 833 345 C 848.2631578947369 345, 875.7368421052631 348, 891 348 C 913.6315789473684 348, 954.3684210526316 344, 977 344 C 1000.9473684210526 344, 1044.0526315789473 363, 1068 363 C 1091.6842105263158 363, 1134.3157894736842 287, 1158 287 C 1178.2631578947369 287, 1214.7368421052631 284, 1235 284 C 1248.421052631579 284, 1272.578947368421 348, 1286 348 C 1302.578947368421 348, 1332.421052631579 348, 1349 348 C 1369.7894736842106 348, 1407.2105263157894 364, 1428 364 C 1448.5263157894738 364, 1485.4736842105262 279, 1506 279 C 1519.157894736842 279, 1542.842105263158 293, 1556 293 C 1576.5263157894738 293, 1613.4736842105262 285, 1634 285 C 1657.6842105263158 285, 1700.3157894736842 294, 1724 294 C 1748.4736842105262 294, 1792.5263157894738 361, 1817 361 C 1837.7894736842106 361, 1875.2105263157894 276, 1896 276 C 1920.4736842105262 276, 1964.5263157894738 293, 1989 293 L 2060 321 L 2060 943 Z"></path><path fill="#2f4e6e" stroke="#2f4e6e" d="M -140 943 L -70 401 C -45.26315789473684 401, -0.7368421052631575 371, 24 371 C 48.473684210526315 371, 92.52631578947368 356, 117 356 C 132.26315789473685 356, 159.73684210526315 439, 175 439 C 187.89473684210526 439, 211.10526315789474 361, 224 361 C 239 361, 266 357, 281 357 C 304.6842105263158 357, 347.3157894736842 370, 371 370 C 384.6842105263158 370, 409.3157894736842 431, 423 431 C 436.1578947368421 431, 459.8421052631579 438, 473 438 C 489.57894736842104 438, 519.421052631579 443, 536 443 C 557.0526315789474 443, 594.9473684210526 426, 616 426 C 640.2105263157895 426, 683.7894736842105 427, 708 427 C 729.0526315789474 427, 766.9473684210526 434, 788 434 C 809.8421052631579 434, 849.1578947368421 367, 871 367 C 895.7368421052631 367, 940.2631578947369 427, 965 427 C 981.578947368421 427, 1011.421052631579 445, 1028 445 C 1049.0526315789473 445, 1086.9473684210527 377, 1108 377 C 1124.842105263158 377, 1155.157894736842 370, 1172 370 C 1189.1052631578948 370, 1219.8947368421052 425, 1237 425 C 1250.157894736842 425, 1273.842105263158 433, 1287 433 C 1301.2105263157894 433, 1326.7894736842106 434, 1341 434 C 1362.3157894736842 434, 1400.6842105263158 446, 1422 446 C 1440.421052631579 446, 1473.578947368421 375, 1492 375 C 1514.8947368421052 375, 1556.1052631578948 446, 1579 446 C 1602.421052631579 446, 1644.578947368421 371, 1668 371 C 1689.3157894736842 371, 1727.6842105263158 359, 1749 359 C 1771.1052631578948 359, 1810.8947368421052 427, 1833 427 C 1846.9473684210527 427, 1872.0526315789473 366, 1886 366 C 1907.578947368421 366, 1946.421052631579 425, 1968 425 L 2060 401 L 2060 943 Z"></path><path fill="#293f58" stroke="#293f58" d="M -140 943 L -56 481 C -43.36842105263158 481, -20.631578947368418 516, -8 516 C 7.789473684210526 516, 36.21052631578947 526, 52 526 C 66.47368421052632 526, 92.52631578947368 442, 107 442 C 122.78947368421052 442, 151.21052631578948 517, 167 517 C 180.94736842105263 517, 206.05263157894737 445, 220 445 C 232.89473684210526 445, 256.10526315789474 509, 269 509 C 293.2105263157895 509, 336.7894736842105 504, 361 504 C 378.36842105263156 504, 409.63157894736844 514, 427 514 C 447.5263157894737 514, 484.4736842105263 507, 505 507 C 526.3157894736842 507, 564.6842105263158 507, 586 507 C 606 507, 642 435, 662 435 C 680.1578947368421 435, 712.8421052631579 457, 731 457 C 753.6315789473684 457, 794.3684210526316 516, 817 516 C 831.2105263157895 516, 856.7894736842105 520, 871 520 C 891.2631578947369 520, 927.7368421052631 458, 948 458 C 963.7894736842105 458, 992.2105263157895 511, 1008 511 C 1021.9473684210526 511, 1047.0526315789473 457, 1061 457 C 1075.2105263157894 457, 1100.7894736842106 444, 1115 444 C 1135.7894736842106 444, 1173.2105263157894 446, 1194 446 C 1210.578947368421 446, 1240.421052631579 438, 1257 438 C 1273.578947368421 438, 1303.421052631579 515, 1320 515 C 1338.6842105263158 515, 1372.3157894736842 439, 1391 439 C 1407.0526315789473 439, 1435.9473684210527 506, 1452 506 C 1475.421052631579 506, 1517.578947368421 440, 1541 440 C 1556.5263157894738 440, 1584.4736842105262 516, 1600 516 C 1615.7894736842106 516, 1644.2105263157894 454, 1660 454 C 1677.6315789473683 454, 1709.3684210526317 444, 1727 444 C 1750.421052631579 444, 1792.578947368421 520, 1816 520 C 1830.7368421052631 520, 1857.2631578947369 454, 1872 454 C 1885.9473684210527 454, 1911.0526315789473 521, 1925 521 L 2060 481 L 2060 943 Z"></path><path fill="#223143" stroke="#223143" d="M -140 943 L -42 562 C -23.842105263157897 562, 8.842105263157897 607, 27 607 C 49.10526315789474 607, 88.89473684210526 600, 111 600 C 131.78947368421052 600, 169.21052631578948 537, 190 537 C 210 537, 246 594, 266 594 C 284.6842105263158 594, 318.3157894736842 596, 337 596 C 352 596, 379 524, 394 524 C 415.05263157894734 524, 452.94736842105266 531, 474 531 C 491.36842105263156 531, 522.6315789473684 528, 540 528 C 563.6842105263158 528, 606.3157894736842 537, 630 537 C 645 537, 672 589, 687 589 C 711.4736842105264 589, 755.5263157894736 607, 780 607 C 802.6315789473684 607, 843.3684210526316 525, 866 525 C 880.2105263157895 525, 905.7894736842105 607, 920 607 C 942.3684210526316 607, 982.6315789473684 608, 1005 608 C 1020.7894736842105 608, 1049.2105263157894 524, 1065 524 C 1083.9473684210527 524, 1118.0526315789473 592, 1137 592 C 1152.5263157894738 592, 1180.4736842105262 587, 1196 587 C 1215.7368421052631 587, 1251.2631578947369 587, 1271 587 C 1292.0526315789473 587, 1329.9473684210527 591, 1351 591 C 1372.0526315789473 591, 1409.9473684210527 589, 1431 589 C 1454.421052631579 589, 1496.578947368421 538, 1520 538 C 1537.1052631578948 538, 1567.8947368421052 534, 1585 534 C 1606.578947368421 534, 1645.421052631579 519, 1667 519 C 1690.6842105263158 519, 1733.3157894736842 598, 1757 598 C 1773.578947368421 598, 1803.421052631579 602, 1820 602 C 1836.842105263158 602, 1867.157894736842 589, 1884 589 C 1903.7368421052631 589, 1939.2631578947369 516, 1959 516 L 2060 562 L 2060 943 Z"></path><path fill="#1b242f" stroke="#1b242f" d="M -140 943 L -28 642 C -4.842105263157897 642, 36.8421052631579 670, 60 670 C 78.42105263157895 670, 111.57894736842105 598, 130 598 C 148.42105263157896 598, 181.57894736842104 600, 200 600 C 220.26315789473685 600, 256.7368421052632 668, 277 668 C 289.63157894736844 668, 312.36842105263156 604, 325 604 C 339.2105263157895 604, 364.7894736842105 599, 379 599 C 393.7368421052632 599, 420.2631578947368 605, 435 605 C 459.4736842105263 605, 503.5263157894737 683, 528 683 C 551.421052631579 683, 593.578947368421 615, 617 615 C 636.7368421052631 615, 672.2631578947369 605, 692 605 C 705.1578947368421 605, 728.8421052631579 676, 742 676 C 766.7368421052631 676, 811.2631578947369 602, 836 602 C 857.8421052631579 602, 897.1578947368421 683, 919 683 C 936.6315789473684 683, 968.3684210526316 673, 986 673 C 1006.5263157894736 673, 1043.4736842105262 604, 1064 604 C 1085.3157894736842 604, 1123.6842105263158 607, 1145 607 C 1160.7894736842106 607, 1189.2105263157894 685, 1205 685 C 1228.9473684210527 685, 1272.0526315789473 608, 1296 608 C 1316.2631578947369 608, 1352.7368421052631 687, 1373 687 C 1392.4736842105262 687, 1427.5263157894738 615, 1447 615 C 1463.842105263158 615, 1494.157894736842 676, 1511 676 C 1528.8947368421052 676, 1561.1052631578948 671, 1579 671 C 1594.2631578947369 671, 1621.7368421052631 687, 1637 687 C 1649.6315789473683 687, 1672.3684210526317 613, 1685 613 C 1708.9473684210527 613, 1752.0526315789473 683, 1776 683 C 1790.2105263157894 683, 1815.7894736842106 666, 1830 666 C 1853.9473684210527 666, 1897.0526315789473 666, 1921 666 L 2060 642 L 2060 943 Z"></path><path fill="#13171c" stroke="#13171c" d="M -140 943 L -14 722 C 4.157894736842103 722, 36.8421052631579 687, 55 687 C 70.26315789473684 687, 97.73684210526316 678, 113 678 C 130.3684210526316 678, 161.6315789473684 699, 179 699 C 194 699, 221 684, 236 684 C 259.9473684210526 684, 303.0526315789474 767, 327 767 C 341.4736842105263 767, 367.5263157894737 690, 382 690 C 404.10526315789474 690, 443.89473684210526 765, 466 765 C 484.1578947368421 765, 516.8421052631579 677, 535 677 C 554.7368421052631 677, 590.2631578947369 747, 610 747 C 631.8421052631579 747, 671.1578947368421 688, 693 688 C 707.4736842105264 688, 733.5263157894736 762, 748 762 C 770.8947368421052 762, 812.1052631578948 747, 835 747 C 848.421052631579 747, 872.578947368421 762, 886 762 C 907.8421052631579 762, 947.1578947368421 750, 969 750 C 985.578947368421 750, 1015.421052631579 682, 1032 682 C 1053.3157894736842 682, 1091.6842105263158 756, 1113 756 C 1132.7368421052631 756, 1168.2631578947369 765, 1188 765 C 1209.578947368421 765, 1248.421052631579 680, 1270 680 C 1289.7368421052631 680, 1325.2631578947369 694, 1345 694 C 1358.157894736842 694, 1381.842105263158 690, 1395 690 C 1409.2105263157894 690, 1434.7894736842106 682, 1449 682 C 1462.421052631579 682, 1486.578947368421 752, 1500 752 C 1518.157894736842 752, 1550.842105263158 687, 1569 687 C 1587.6842105263158 687, 1621.3157894736842 751, 1640 751 C 1660 751, 1696 759, 1716 759 C 1732.0526315789473 759, 1760.9473684210527 692, 1777 692 C 1791.7368421052631 692, 1818.2631578947369 699, 1833 699 C 1848 699, 1875 768, 1890 768 C 1905 768, 1932 681, 1947 681 L 2060 722 L 2060 943 Z"></path><path fill="#050505" stroke="#050505" d="M -140 943 L 0 803 C 15.526315789473683 803, 43.473684210526315 761, 59 761 C 77.68421052631578 761, 111.31578947368422 761, 130 761 C 146.05263157894737 761, 174.94736842105263 775, 191 775 C 209.42105263157896 775, 242.57894736842104 838, 261 838 C 285.7368421052632 838, 330.2631578947368 847, 355 847 C 369.2105263157895 847, 394.7894736842105 843, 409 843 C 429.5263157894737 843, 466.4736842105263 774, 487 774 C 500.6842105263158 774, 525.3157894736842 760, 539 760 C 555.578947368421 760, 585.421052631579 844, 602 844 C 623.8421052631579 844, 663.1578947368421 834, 685 834 C 700.7894736842105 834, 729.2105263157895 770, 745 770 C 768.421052631579 770, 810.578947368421 838, 834 838 C 850.8421052631579 838, 881.1578947368421 762, 898 762 C 917.2105263157895 762, 951.7894736842105 834, 971 834 C 984.1578947368421 834, 1007.8421052631579 849, 1021 849 C 1042.842105263158 849, 1082.157894736842 758, 1104 758 C 1128.4736842105262 758, 1172.5263157894738 771, 1197 771 C 1214.1052631578948 771, 1244.8947368421052 775, 1262 775 C 1276.4736842105262 775, 1302.5263157894738 758, 1317 758 C 1339.6315789473683 758, 1380.3684210526317 827, 1403 827 C 1425.8947368421052 827, 1467.1052631578948 773, 1490 773 C 1510.7894736842106 773, 1548.2105263157894 759, 1569 759 C 1590.578947368421 759, 1629.421052631579 763, 1651 763 C 1672.842105263158 763, 1712.157894736842 761, 1734 761 C 1749.2631578947369 761, 1776.7368421052631 766, 1792 766 C 1808.0526315789473 766, 1836.9473684210527 847, 1853 847 C 1870.8947368421052 847, 1903.1052631578948 775, 1921 775 L 2060 803 L 2060 943 Z"></path></svg>